<svg version="1.1" id="Layer_1" xmlns="http://www.w3.org/2000/svg" x="0" y="0" viewBox="0 0 267.7 95.1" xml:space="preserve"><style>.st0{stroke:#0c2b3a;stroke-width:2;stroke-miterlimit:10}.st0,.st1{fill:#0c2b3a}</style><path class="st0" d="M85.2-131.4l7.1 7-3.1 2.9-7.3-7.1c-5.1 3.7-11.5 6-18.5 6-17.3 0-31.3-14-31.3-31.3s14-31.3 31.3-31.3 31.3 14 31.3 31.3c.1 8.8-3.6 16.8-9.5 22.5zm-6.5-.4l-13.4-13.3 3.1-2.9L82-134.5c5-4.9 8.1-11.8 8.1-19.4 0-14.9-11.9-26.9-26.7-26.9-14.8 0-26.7 12-26.7 26.9S48.6-127 63.5-127c5.7 0 10.9-1.8 15.2-4.8zM141.7-166.9v43.4h-4.3v-8.2c-3.3 6.4-8.8 9.2-15.5 9.2-10.3 0-16.8-6.8-16.8-17.3v-27h4.4v27c0 8 4.6 13.2 12.7 13.2 8.5 0 15.2-5.5 15.2-17.3v-22.9h4.3zM153.8-180.9c0-1.8 1.6-3.4 3.5-3.4s3.5 1.6 3.5 3.4c0 1.9-1.6 3.5-3.5 3.5s-3.5-1.6-3.5-3.5zm1.3 14h4.3v43.4h-4.3v-43.4zM169.8-145.2c0-12.8 9.7-22.6 22.8-22.6 8.5 0 15.8 4.3 18.9 11.1l-3.6 2.1c-2.5-5.5-8.4-9-15.3-9-10.5 0-18.4 8.1-18.4 18.5s7.9 18.5 18.4 18.5c7 0 12.7-3.6 15.6-9l3.6 2.2c-3.5 6.7-10.8 11-19.2 11-13.1-.2-22.8-10-22.8-22.8zM248.7-123.6l-23-21.3v21.3h-4.3v-60.7h4.3v37l21.9-19.7h6.1l-23.3 20.8 24.2 22.5h-5.9zM260.7-153.9c0-17.3 13.1-31.3 31.6-31.3 11.2 0 21 5.7 26 14.6l-4.1 2.3c-4-7.5-12.4-12.5-21.9-12.5-16 0-27 12-27 26.9s11 26.9 27 26.9c9.6 0 18.1-5.1 22.1-12.7l4.1 2.3c-4.9 8.9-14.8 14.8-26.2 14.8-18.5 0-31.6-14-31.6-31.3zM370.6-166.9v43.4h-4.4v-9.8c-3.6 6.5-10.3 10.8-18.6 10.8-12.3 0-22.5-9.8-22.5-22.6s10.1-22.6 22.5-22.6c8.3 0 15 4.2 18.6 10.8v-9.8h4.4zm-4.5 21.7c0-10.3-8-18.5-18.3-18.5s-18.4 8.1-18.4 18.5 8.1 18.5 18.4 18.5 18.3-8.2 18.3-18.5zM402.7-167.5v4.2c-7.5 0-14.5 4.6-14.5 15.7v24.1h-4.3v-43.4h4.3v8.5c3-6.9 8.6-9.1 14.5-9.1zM408.7-136.9l4-2.3c2.1 7.3 8.2 12.2 18.2 12.2 10.1 0 15.3-5.2 15.3-12.1 0-7.3-6.4-10.1-15.7-13-10.1-3.3-19.2-6.2-19.2-16.7 0-10 8.1-16.3 18.4-16.3 10 0 16.6 5.7 19.5 12.7l-3.9 2.2c-2.3-5.5-6.9-10.5-15.6-10.5-8.4 0-13.7 4.9-13.7 11.7 0 7.3 6.2 9.5 14.8 12.4 10.8 3.6 20.1 6.9 20.1 17.4 0 10.1-7.9 16.6-19.9 16.6-11.5 0-19.5-5.7-22.3-14.3zM503.4-145.1c0 .7-.1 1.4-.1 2.1H464c1 9.8 8.5 16.2 18.4 16.2 7.1 0 12.5-3.3 15-7.9l3.8 2.3c-3.6 5.9-10.3 9.8-18.9 9.8-13.4 0-22.8-9.5-22.8-22.6 0-12.7 9.2-22.6 22.5-22.6 13.1-.1 21.4 10.9 21.4 22.7zm-39.4-2.1h34.9c-1-10.6-8.4-16.5-16.9-16.5-9.9 0-17.1 6.9-18 16.5zM556.1-166.9v43.4h-4.4v-9.8c-3.6 6.5-10.3 10.8-18.6 10.8-12.3 0-22.5-9.8-22.5-22.6s10.1-22.6 22.5-22.6c8.3 0 15 4.2 18.6 10.8v-9.8h4.4zm-4.4 21.7c0-10.3-8-18.5-18.3-18.5s-18.4 8.1-18.4 18.5 8.1 18.5 18.4 18.5 18.3-8.2 18.3-18.5zM588.3-167.5v4.2c-7.5 0-14.5 4.6-14.5 15.7v24.1h-4.3v-43.4h4.3v8.5c2.9-6.9 8.6-9.1 14.5-9.1zM591.5-145.2c0-12.8 9.7-22.6 22.8-22.6 8.5 0 15.8 4.3 18.9 11.1l-3.6 2.1c-2.5-5.5-8.4-9-15.3-9-10.5 0-18.4 8.1-18.4 18.5s7.9 18.5 18.4 18.5c7 0 12.7-3.6 15.6-9l3.6 2.2c-3.5 6.7-10.8 11-19.2 11-13.1-.2-22.8-10-22.8-22.8zM679.7-150.5v27h-4.4v-27c0-8-4.6-13.2-12.7-13.2-8.5 0-15.2 5.5-15.2 17.3v22.9h-4.3v-60.7h4.3v25.6c3.3-6.4 8.8-9.2 15.5-9.2 10.3-.1 16.8 6.8 16.8 17.3z"/><text transform="translate(28.079 -401.07)" class="st1" font-family="Gilroy-Light" font-size="86.703">QuickCarSearch</text><g><path class="st1" d="M78.4 72.1l8.3 8.7-13.6 12-8.8-9.3C58.5 86.3 51.9 88 44.9 88 21.2 88 2 69.4 2 45.1S21.2 2.2 44.9 2.2s42.9 18.6 42.9 42.9c0 10.3-3.5 19.7-9.4 27zM50.7 69L38.8 56.4l13.6-12 13.2 14c2.1-3.8 3.4-8.3 3.4-13.3 0-14.7-10.6-24.5-24-24.5s-24 9.8-24 24.5 10.6 24.5 24 24.5c1.9 0 3.8-.2 5.7-.6zM105.3 45.1c0-24.3 18-42.9 42.9-42.9 15 0 28.2 7.4 35.4 19.1l-16.3 9.4c-3.7-6.4-10.7-10.1-19.1-10.1-14.6 0-24 9.8-24 24.5s9.4 24.5 24 24.5c8.4 0 15.6-3.8 19.1-10.1l16.3 9.4C176.5 80.6 163.3 88 148.2 88c-24.9 0-42.9-18.6-42.9-42.9zM202 67.6l16.3-9.4c2.9 6.8 8 11.4 17.3 11.4 9 0 11.2-3.5 11.2-6.7 0-5.1-4.7-7.1-17.1-10.5-12.3-3.4-24.3-9.3-24.3-25.1 0-15.9 13.4-25.1 27.7-25.1 13.6 0 24.2 6.5 30.2 18.6l-15.9 9.3c-2.8-5.9-6.7-9.5-14.3-9.5-5.9 0-8.8 2.9-8.8 6.2 0 3.8 2 6.4 14.9 10.3 12.5 3.8 26.5 8.1 26.5 25.6C265.7 78.6 253 88 235 88c-17.3 0-28.4-8.3-33-20.4z"/></g></svg>