<svg version="1.1" id="Layer_1" xmlns="http://www.w3.org/2000/svg" x="0" y="0" viewBox="0 0 1024 177.8" xml:space="preserve"><style>.st0{fill:#0c2b3a}.st1{fill:#e8740c}.st2{fill:#0c2b3a;stroke:#0c2b3a;stroke-width:2;stroke-miterlimit:10}</style><path class="st0" d="M209.2 82.7l10.3-2.9-1.6-3.7-11.5 1.3h-.2c-3.2-6.1-6-12.4-8.3-18.9l-2.8-8-2.9-.2c-22.1-1.3-44.5-1.3-66.6.1l-2 .1-2.8 8c-2.3 6.5-5 12.9-8.3 18.9h-.3L100.8 76l-1.6 3.7 10.4 3c-2.7 4.6-5.7 9-9 13.3l-.6.8v31.8h5.9V98.8c3.8-5 7.2-10.2 10.2-15.6h86.6c3.1 5.4 6.5 10.6 10.2 15.6v29.8h5.9V96.8l-.6-.8c-3.2-4.3-6.3-8.7-9-13.3zm-90-5.4c2.8-5.5 5.2-11.1 7.2-17L128 56c20.9-1.2 42-1.2 62.9 0l1.5 4.3c2 5.8 4.5 11.5 7.2 17h-80.4z"/><path class="st1" d="M129.7 105.4h-13.5v-6.9l13.5 2.3zM201.6 105.4h-13.5v-4.6l13.5-2.3z"/><path class="st0" d="M140.4 100.8h37v4.6h-37zM193.7 128.6h-5.9V125h-57.3v3.6h-5.9v-5.8c0-2.1 1.7-3.8 3.8-3.8H190c2.1 0 3.8 1.7 3.8 3.8v5.8z"/><g><path class="st2" d="M310.6 106.1l7.1 7-3.1 2.9-7.3-7.1c-5.1 3.7-11.5 6-18.5 6-17.3 0-31.3-14-31.3-31.3s14-31.3 31.3-31.3 31.3 14 31.3 31.3c0 8.8-3.6 16.8-9.5 22.5zm-6.5-.4l-13.4-13.3 3.1-2.9 13.6 13.4c5-4.9 8.1-11.8 8.1-19.4 0-14.9-11.9-26.9-26.7-26.9-14.8 0-26.7 12-26.7 26.9s11.9 26.9 26.7 26.9c5.7 0 10.9-1.7 15.3-4.7zM367.1 70.5v43.4h-4.3v-8.2c-3.3 6.4-8.8 9.2-15.5 9.2-10.3 0-16.8-6.8-16.8-17.3v-27h4.4v27c0 8 4.6 13.2 12.7 13.2 8.5 0 15.2-5.5 15.2-17.3v-23h4.3zM379.1 56.6c0-1.8 1.6-3.4 3.5-3.4s3.5 1.6 3.5 3.4c0 1.9-1.6 3.5-3.5 3.5-1.9-.1-3.5-1.6-3.5-3.5zm1.3 13.9h4.3v43.4h-4.3V70.5zM395.2 92.2c0-12.8 9.7-22.6 22.8-22.6 8.5 0 15.8 4.3 18.9 11.1l-3.6 2.1c-2.5-5.5-8.4-9-15.3-9-10.5 0-18.4 8.1-18.4 18.5s7.9 18.5 18.4 18.5c7 0 12.7-3.6 15.6-9l3.6 2.2c-3.5 6.7-10.8 11-19.2 11-13.1-.2-22.8-10-22.8-22.8zM474.1 113.9l-23-21.3v21.3h-4.3V53.2h4.3v37L473 70.5h6.1l-23.3 20.8 24.2 22.5h-5.9zM486 83.5c0-17.3 13.1-31.3 31.6-31.3 11.2 0 21 5.7 26 14.6l-4.1 2.3c-4-7.5-12.4-12.5-21.9-12.5-16 0-27 12-27 26.9s11 26.9 27 26.9c9.6 0 18.1-5.1 22.1-12.7l4.1 2.3c-4.9 8.9-14.8 14.8-26.2 14.8-18.5 0-31.6-13.9-31.6-31.3zM595.9 70.5v43.4h-4.4v-9.8c-3.6 6.5-10.3 10.8-18.6 10.8-12.3 0-22.5-9.8-22.5-22.6s10.1-22.6 22.5-22.6c8.3 0 15 4.2 18.6 10.8v-9.8h4.4zm-4.4 21.7c0-10.3-8-18.5-18.3-18.5s-18.4 8.1-18.4 18.5 8.1 18.5 18.4 18.5 18.3-8.2 18.3-18.5zM628.1 69.9v4.2c-7.5 0-14.5 4.6-14.5 15.7v24.1h-4.3V70.5h4.3V79c2.9-6.8 8.6-9.1 14.5-9.1zM634 100.5l4-2.3c2.1 7.3 8.2 12.2 18.2 12.2 10.1 0 15.3-5.2 15.3-12.1 0-7.3-6.4-10.1-15.7-13-10.1-3.3-19.2-6.2-19.2-16.7 0-10 8.1-16.3 18.4-16.3 10 0 16.6 5.7 19.5 12.7l-3.9 2.2c-2.3-5.5-6.9-10.5-15.6-10.5-8.4 0-13.7 4.9-13.7 11.7 0 7.3 6.2 9.5 14.8 12.4 10.8 3.6 20.1 6.9 20.1 17.4 0 10.1-7.9 16.6-19.9 16.6-11.4 0-19.5-5.7-22.3-14.3zM728.7 92.4c0 .7-.1 1.4-.1 2.1h-39.3c1 9.8 8.5 16.2 18.4 16.2 7.1 0 12.5-3.3 15-7.9l3.8 2.3c-3.6 5.9-10.3 9.8-18.9 9.8-13.4 0-22.8-9.5-22.8-22.6 0-12.7 9.2-22.6 22.5-22.6 13.2-.1 21.4 10.8 21.4 22.7zm-39.3-2.2h34.9c-1-10.6-8.4-16.5-16.9-16.5-10 0-17.2 6.9-18 16.5zM781.4 70.5v43.4H777v-9.8c-3.6 6.5-10.3 10.8-18.6 10.8-12.3 0-22.5-9.8-22.5-22.6s10.1-22.6 22.5-22.6c8.3 0 15 4.2 18.6 10.8v-9.8h4.4zM777 92.2c0-10.3-8-18.5-18.3-18.5s-18.4 8.1-18.4 18.5 8.1 18.5 18.4 18.5 18.3-8.2 18.3-18.5zM813.6 69.9v4.2c-7.5 0-14.5 4.6-14.5 15.7v24.1h-4.3V70.5h4.3V79c3-6.8 8.6-9.1 14.5-9.1zM816.8 92.2c0-12.8 9.7-22.6 22.8-22.6 8.5 0 15.8 4.3 18.9 11.1l-3.6 2.1c-2.5-5.5-8.4-9-15.3-9-10.5 0-18.4 8.1-18.4 18.5s7.9 18.5 18.4 18.5c7 0 12.7-3.6 15.6-9l3.6 2.2c-3.5 6.7-10.8 11-19.2 11-13.1-.2-22.8-10-22.8-22.8zM905.1 86.9v27h-4.4v-27c0-8-4.6-13.2-12.7-13.2-8.5 0-15.2 5.5-15.2 17.3v22.9h-4.3V53.2h4.3v25.6c3.3-6.4 8.8-9.2 15.5-9.2 10.3 0 16.8 6.8 16.8 17.3z"/></g><text transform="translate(253.427 -374.461)" class="st0" font-family="Gilroy-Light" font-size="86.703">QuickCarSearch</text></svg>