<?xml version="1.0" encoding="utf-8"?>
<!-- Generator: Adobe Illustrator 26.3.1, SVG Export Plug-In . SVG Version: 6.00 Build 0)  -->
<svg version="1.1" id="Layer_1" xmlns="http://www.w3.org/2000/svg" xmlns:xlink="http://www.w3.org/1999/xlink" x="0px" y="0px"
	 viewBox="0 0 267.7 95.1" style="enable-background:new 0 0 267.7 95.1;" xml:space="preserve">
<style type="text/css">
	.st0{fill:#FFFFFF;}
</style>
<g>
	<path class="st0" d="M78.4,72.1l8.3,8.7l-13.6,12l-8.8-9.3C58.5,86.3,51.9,88,44.9,88C21.2,88,2,69.4,2,45.1S21.2,2.2,44.9,2.2
		s42.9,18.6,42.9,42.9C87.8,55.4,84.3,64.8,78.4,72.1z M50.7,69L38.8,56.4l13.6-12l13.2,14c2.1-3.8,3.4-8.3,3.4-13.3
		c0-14.7-10.6-24.5-24-24.5s-24,9.8-24,24.5s10.6,24.5,24,24.5C46.9,69.6,48.8,69.4,50.7,69z M105.3,45.1c0-24.3,18-42.9,42.9-42.9
		c15,0,28.2,7.4,35.4,19.1l-16.3,9.4c-3.7-6.4-10.7-10.1-19.1-10.1c-14.6,0-24,9.8-24,24.5s9.4,24.5,24,24.5
		c8.4,0,15.6-3.8,19.1-10.1l16.3,9.4C176.5,80.6,163.3,88,148.2,88C123.3,88,105.3,69.4,105.3,45.1z M202,67.6l16.3-9.4
		c2.9,6.8,8,11.4,17.3,11.4c9,0,11.2-3.5,11.2-6.7c0-5.1-4.7-7.1-17.1-10.5c-12.3-3.4-24.3-9.3-24.3-25.1
		c0-15.9,13.4-25.1,27.7-25.1c13.6,0,24.2,6.5,30.2,18.6l-15.9,9.3c-2.8-5.9-6.7-9.5-14.3-9.5c-5.9,0-8.8,2.9-8.8,6.2
		c0,3.8,2,6.4,14.9,10.3c12.5,3.8,26.5,8.1,26.5,25.6C265.7,78.6,253,88,235,88C217.7,88,206.6,79.7,202,67.6z"/>
</g>
</svg>
