<?xml version="1.0" encoding="utf-8"?>
<!-- Generator: Adobe Illustrator 25.3.1, SVG Export Plug-In . SVG Version: 6.00 Build 0)  -->
<svg version="1.1" id="Layer_1" xmlns="http://www.w3.org/2000/svg" xmlns:xlink="http://www.w3.org/1999/xlink" x="0px" y="0px"
	 viewBox="0 0 1020.5 1020.5" style="enable-background:new 0 0 1020.5 1020.5;" xml:space="preserve">
<style type="text/css">
	.st0{fill:#E8740C;}
	.st1{fill:#FFFFFF;}
</style>
<circle class="st0" cx="510.7" cy="510.2" r="498.2"/>
<g>
	<path class="st1" d="M843.9,544.6c-15.8-20.5-30.6-42.1-44.3-64.3l47.2-13.5l8.8-2.5l-3.7-8.4l-9.1-20.7l-2.4-5.4l-5.9,0.7
		l-59.3,6.7c-17-32.3-31.4-65.7-43.1-99.3l-15.5-44.6l-1.8-5l-5.3-0.3l-16.2-1c-60.6-3.5-122.3-5.3-183.3-5.3
		c-62.6,0-125.8,1.9-187.7,5.6l-11,0.6l-5.3,0.3l-1.8,5.1l-15.5,44.6c-11.8,33.9-26.3,67.4-43.1,99.4l-59.7-6.8l-5.8-0.7l-2.4,5.4
		l-9.2,20.7l-3.7,8.4l8.8,2.5l47.5,13.6c-13.5,22-28.4,43.5-44.3,64.2l-3.4,4.4l-1.7,2.2v2.7v176.9v8h8h33h8v-8v-163
		c19.1-25.3,37-52.5,53.5-81.1h472.3c16.3,28.4,34.3,55.7,53.5,81.1v163v8h8h33h8v-8V553.9v-2.7l-1.7-2.2L843.9,544.6z M720.7,437.7
		H300.2c13.4-27.6,25.1-55.7,34.8-83.7l6.5-18.8c55.9-3,112.7-4.6,168.9-4.6c56.3,0,113.1,1.5,168.9,4.6l6.5,18.8
		C695.7,382,707.3,410.1,720.7,437.7z"/>
	<polygon class="st1" points="353.7,610.1 353.7,602.1 353.7,576.5 353.7,569.7 347,568.6 271.7,555.8 262.4,554.2 262.4,563.7 
		262.4,602.1 262.4,610.1 270.4,610.1 345.7,610.1 	"/>
	<polygon class="st1" points="668.7,568.6 662,569.7 662,576.5 662,602.1 662,610.1 670,610.1 745.2,610.1 753.2,610.1 753.2,602.1 
		753.2,563.7 753.2,554.2 743.9,555.8 	"/>
	<path class="st1" d="M680.1,669.8H337.8c-16,0-29,13-29,29v32v8h8h33h8v-8v-12H660v12v8h8h33h0.1h8v-8v-32
		C709.1,682.8,696.1,669.8,680.1,669.8z"/>
	<polygon class="st1" points="618.7,610.1 618.7,602.1 618.7,576.5 618.7,568.5 610.7,568.5 405,568.5 397,568.5 397,576.5 
		397,602.1 397,610.1 405,610.1 610.7,610.1 	"/>
</g>
</svg>
