<svg version="1.1" id="Layer_1" xmlns="http://www.w3.org/2000/svg" x="0" y="0" viewBox="0 0 1024 675.5" xml:space="preserve"><style>.st0{fill:#0c2b3a}.st1{fill:#e8740c}</style><path class="st0" d="M906.2 288.3l81.4-23.3-12.9-29.4-90.6 10.3h-1.6c-25.6-48-47.6-97.9-65.5-149.6l-22.1-63.4-23-1.4c-174.8-10.1-351.9-10-526.5.4l-15.6.9-22 63.4c-18 51.7-39.9 101.6-65.5 149.6h-2.2l-90.6-10.3L36.4 265l81.9 23.5c-21.6 36.3-45.5 71.4-71.5 105.1l-4.9 6.3v251.6h46.9V415.8c29.8-39.2 56.7-80.4 80.9-123h685.1c24.2 42.7 51.1 83.8 80.9 123v235.7h46.9V399.9l-4.9-6.3c-26-33.8-49.8-68.9-71.5-105.3zm-711.3-42.4c21.9-43.3 41.1-88.1 57.1-134.2l11.8-33.9c165-9.3 332.1-9.3 497.1 0l11.8 33.9c16 46.1 35.2 90.9 57.1 134.2H194.9z"/><path class="st1" d="M277.9 468.5H170.8v-54.7L277.9 432zM846.3 468.5h-107V432l107-18.2z"/><path class="st0" d="M362.3 432h292.6v36.5H362.3zM783.4 651.5h-46.9V623H283.7v28.5h-46.9V606c0-16.5 13.4-29.9 29.9-29.9h486.9c16.5 0 29.9 13.4 29.9 29.9v45.5z"/></svg>