<svg style="fill: #FFF" xmlns="http://www.w3.org/2000/svg" xml:space="preserve" viewBox="0 0 576 512"><path d="M177.6 469.6C171.5 476.2 163 480 154 480s-17.5-3.8-23.6-10.4l-88-96c-11.9-13-11.1-33.3 2-45.2s33.3-11.1 45.2 2l32.4 35.3V64c0-17.7 14.3-32 32-32s32 14.3 32 32v301.7l32.4-35.4c11.9-13 32.2-13.9 45.2-2s13.9 32.2 2 45.2l-88 96.1zM392.4 42.4C398.5 35.8 407 32 416 32s17.5 3.8 23.6 10.4l88 96c11.9 13 11.1 33.3-2 45.2-13.1 11.9-33.3 11.1-45.2-2L448 146.3V448c0 17.7-14.3 32-32 32s-32-14.3-32-32V146.3l-32.4 35.4c-11.9 13-32.2 13.9-45.2 2s-13.9-32.2-2-45.2l88-96.1z"/></svg>