<svg style="fill: #FFF" xmlns="http://www.w3.org/2000/svg" xmlns:xlink="http://www.w3.org/1999/xlink" x="0px" y="0px"
	 viewBox="0 0 512 512" xml:space="preserve">
<path d="M256,0C114.62,0,0,114.62,0,256s114.62,256,256,256s256-114.62,256-256S397.38,0,256,0z M377.85,325.63v34.81
	c0,19.2-15.61,34.81-34.81,34.81H168.98c-19.2,0-34.81-15.61-34.81-34.81v-34.81v-71.47c2.12,0.54,4.3,0.92,6.53,1.25h0.05
	c2.88,0.38,5.87,0.6,8.87,0.6c6.74,0,13.27-1.03,19.36-2.94v72.56h174.06v-72.51c6.04,1.85,12.51,2.88,19.26,2.88
	c2.99,0,5.93-0.22,8.81-0.6h0.05c2.34-0.27,4.51-0.71,6.69-1.25V325.63z M368.93,238.16c-2.18,0.27-4.35,0.44-6.58,0.44
	c-14.2,0-26.76-6.2-35.47-15.77c-8.65,9.57-21.21,15.77-35.47,15.77c-14.2,0-26.82-6.2-35.47-15.77
	c-8.65,9.57-21.27,15.77-35.47,15.77s-26.82-6.2-35.47-15.77c-8.65,9.57-21.27,15.77-35.47,15.77c-2.18,0-4.41-0.16-6.58-0.44
	c-30.08-4.08-44.33-39.49-28.23-64.95l31.22-49.34c2.77-4.41,7.72-7.13,13-7.13h194.08c5.28,0,10.23,2.72,13,7.13l31.17,49.34h0.05
	C413.43,198.72,399.12,234.13,368.93,238.16z"/>
</svg>
