<svg style="fill: #FFF" xmlns="http://www.w3.org/2000/svg" xmlns:xlink="http://www.w3.org/1999/xlink" x="0px" y="0px"
	 viewBox="0 0 512 512" xml:space="preserve">
<path d="M256,0C114.62,0,0,114.62,0,256s114.62,256,256,256s256-114.62,256-256S397.38,0,256,0z M419.91,255.72
	c0,10.25-8.54,18.28-18.23,18.28h-18.23l0.4,91.25c0,1.54-0.11,3.08-0.28,4.61v9.17c0,12.59-10.2,22.78-22.78,22.78h-9.11
	c-0.63,0-1.25,0-1.88-0.06c-0.8,0.06-1.59,0.06-2.39,0.06H328.9h-13.67c-12.59,0-22.78-10.2-22.78-22.78v-13.67v-36.45
	c0-10.08-8.14-18.23-18.23-18.23h-36.45c-10.08,0-18.23,8.14-18.23,18.23v36.45v13.67c0,12.59-10.2,22.78-22.78,22.78h-13.67h-18.17
	c-0.85,0-1.71-0.06-2.56-0.11c-0.68,0.06-1.37,0.11-2.05,0.11h-9.11c-12.59,0-22.78-10.2-22.78-22.78v-63.79
	c0-0.51,0-1.08,0.06-1.59V274H110.2c-10.25,0-18.23-7.97-18.23-18.28c0-5.13,1.71-9.68,5.7-13.67l146.04-127.3
	c3.99-3.99,8.54-4.56,12.53-4.56s8.54,1.14,11.96,3.99l145.47,127.87C418.21,246.03,420.48,250.59,419.91,255.72z"/>
</svg>
