<svg style="fill: #FFF" xmlns="http://www.w3.org/2000/svg" xmlns:xlink="http://www.w3.org/1999/xlink" x="0px" y="0px"
	 viewBox="0 0 512 512" xml:space="preserve">
<g>
	<path d="M360.5,332h-152c-5.22,0-9.5,4.28-9.5,9.5s4.28,9.5,9.5,9.5h152c5.22,0,9.5-4.28,9.5-9.5S365.72,332,360.5,332z"/>
	<path d="M360.5,218H332c-5.22,0-9.5,4.28-9.5,9.5s4.28,9.5,9.5,9.5h28.5c5.22,0,9.5-4.28,9.5-9.5S365.72,218,360.5,218z"/>
	<path d="M213.25,237h66.5c7.9,0,14.25-6.35,14.25-14.25v-47.5c0-7.9-6.35-14.25-14.25-14.25h-66.5c-7.9,0-14.25,6.35-14.25,14.25
		v47.5C199,230.65,205.35,237,213.25,237z"/>
	<path d="M360.5,275h-152c-5.22,0-9.5,4.28-9.5,9.5s4.28,9.5,9.5,9.5h152c5.22,0,9.5-4.28,9.5-9.5S365.72,275,360.5,275z"/>
	<path d="M256,0C114.62,0,0,114.62,0,256s114.62,256,256,256s256-114.62,256-256S397.38,0,256,0z M408,351c0,20.96-17.04,38-38,38
		H151.5c-26.24,0-47.5-21.26-47.5-47.5V180c0-10.51,8.49-19,19-19s19,8.49,19,19v161.5c0,5.22,4.28,9.5,9.5,9.5s9.5-4.28,9.5-9.5
		V161c0-20.96,17.04-38,38-38h171c20.96,0,38,17.04,38,38V351z"/>
	<path d="M360.5,161H332c-5.22,0-9.5,4.28-9.5,9.5s4.28,9.5,9.5,9.5h28.5c5.22,0,9.5-4.28,9.5-9.5S365.72,161,360.5,161z"/>
</g>
</svg>
